Coordinates
version=1
nRows=15
nColumns=27
inDegrees=yes

Units are S.I. units (second, meters, Newtons, ...)
If the header above contains a line with 'inDegrees', this indicates whether rotational values are in degrees (yes) or radians (no).

endheader
time	pelvis_rotation	pelvis_tilt	pelvis_list	pelvis_tx	pelvis_ty	pelvis_tz	hip_flexion_r	hip_adduction_r	hip_rotation_r	knee_angle_r	knee_rotation_r	knee_adduction_r	knee_angle_r_beta	ankle_angle_r	subtalar_angle_r	mtp_angle_r	hip_flexion_l	hip_adduction_l	hip_rotation_l	knee_angle_l	knee_rotation_l	knee_adduction_l	knee_angle_l_beta	ankle_angle_l	subtalar_angle_l	mtp_angle_l
      5.24500000	     12.06083764	    -38.31708596	      5.08649157	     -0.06215762	      0.66030879	     -1.18441871	     96.42189484	    -44.84408947	     -4.36144419	     74.48448266	      0.00000000	      9.08743117	      1.29999946	      9.05910801	      0.00000000	      0.00000000	     98.87386981	    -22.49753362	     -0.39025517	     68.38578294	      0.00000000	     -9.83722579	      1.19355707	      1.79525632	      0.00000000	      0.00000000
      5.25000000	     12.10464597	    -38.26814243	      5.05738913	     -0.06172396	      0.66061320	     -1.18442058	     96.22302650	    -44.90483580	     -4.50986051	     74.44125580	      0.00000000	      9.09075045	      1.29924501	      9.05529639	      0.00000000	      0.00000000	     98.79303019	    -22.46117383	     -0.35688697	     68.35096186	      0.00000000	     -9.83749293	      1.19294933	      1.76090917	      0.00000000	      0.00000000
      5.25500000	     12.04741680	    -38.17596788	      4.47495806	     -0.06135261	      0.66108629	     -1.18415436	     95.31185139	    -44.84450750	     -5.40931043	     74.24422347	      0.00000000	      8.65401815	      1.29580615	      9.03895931	      0.00000000	      0.00000000	     98.92027865	    -22.39899530	      0.30454763	     68.32511008	      0.00000000	     -9.69512408	      1.19249813	      1.78029091	      0.00000000	      0.00000000
      5.26000000	     12.12266058	    -38.21525521	      5.03943241	     -0.06094831	      0.66129133	     -1.18434466	     95.95571934	    -44.91920445	     -4.65468089	     74.35059708	      0.00000000	      9.09120843	      1.29766272	      9.08636257	      0.00000000	      0.00000000	     98.60653522	    -22.47888744	     -0.41457670	     68.23680821	      0.00000000	     -9.83855195	      1.19095697	      1.76771056	      0.00000000	      0.00000000
      5.26500000	     12.14415781	    -38.06738735	      4.39318750	     -0.06056058	      0.66180233	     -1.18407984	     94.83494667	    -44.95435851	     -5.77147851	     74.12474259	      0.00000000	      8.67614286	      1.29372082	      9.09503377	      0.00000000	      0.00000000	     98.74229967	    -22.31902790	      0.39210867	     68.20521767	      0.00000000	     -9.69640577	      1.19040562	      1.70649626	      0.00000000	      0.00000000
      5.27000000	     11.48834715	    -38.28812850	      4.91562612	     -0.06052006	      0.66187479	     -1.18379476	     96.12390976	    -44.14049676	     -4.19463283	     74.26478144	      0.00000000	      8.57569407	      1.29616495	      8.99714529	      0.00000000	      0.00000000	     98.43514752	    -23.15488878	     -0.72733065	     68.14903474	      0.00000000	     -9.70175300	      1.18942504	      1.70374769	      0.00000000	      0.00000000
      5.27500000	     12.15911877	    -38.09625094	      5.01548599	     -0.05984419	      0.66223687	     -1.18420907	     95.53289194	    -44.96806337	     -4.90041467	     74.22721669	      0.00000000	      9.11078319	      1.29550933	      9.13622988	      0.00000000	      0.00000000	     98.31138810	    -22.50159498	     -0.49032245	     68.09045813	      0.00000000	     -9.83969273	      1.18840268	      1.76155904	      0.00000000	      0.00000000
      5.28000000	     12.15054718	    -38.05576612	      4.99026751	     -0.05949153	      0.66254207	     -1.18416337	     95.38099172	    -44.96798276	     -4.99463814	     74.18325892	      0.00000000	      9.11698966	      1.29474212	      9.13928756	      0.00000000	      0.00000000	     98.21764858	    -22.52483225	     -0.50498208	     68.04710195	      0.00000000	     -9.84035501	      1.18764598	      1.76460250	      0.00000000	      0.00000000
      5.28500000	     11.57473013	    -38.16327917	      4.94229259	     -0.05948883	      0.66280142	     -1.18371976	     95.73387483	    -44.24393907	     -4.40823243	     74.13897528	      0.00000000	      8.59970625	      1.29396922	      9.02301817	      0.00000000	      0.00000000	     98.11933830	    -23.11835658	     -0.81727184	     67.98595136	      0.00000000	     -9.70410347	      1.18657870	      1.68834808	      0.00000000	      0.00000000
      5.29000000	     12.30858114	    -37.92740222	      4.90959154	     -0.05873052	      0.66320518	     -1.18415628	     94.87320007	    -45.16979102	     -5.42702486	     74.07044629	      0.00000000	      9.14514538	      1.29277317	      9.13828637	      0.00000000	      0.00000000	     98.03933733	    -22.37575242	     -0.38388623	     67.94180561	      0.00000000	     -9.84030958	      1.18580821	      1.76384416	      0.00000000	      0.00000000
      5.29500000	     12.21285480	    -37.92477785	      4.99017808	     -0.05847112	      0.66345780	     -1.18408494	     94.96415203	    -45.05416360	     -5.23798270	     74.05091888	      0.00000000	      9.13861831	      1.29243235	      9.14101575	      0.00000000	      0.00000000	     97.90905302	    -22.51880627	     -0.59102757	     67.88822098	      0.00000000	     -9.84146391	      1.18487298	      1.75675825	      0.00000000	      0.00000000
      5.30000000	     12.16112871	    -37.89107079	      4.89802281	     -0.05813139	      0.66372967	     -1.18402806	     94.76875175	    -45.01840179	     -5.39664242	     74.00282396	      0.00000000	      9.14340362	      1.29159293	      9.14991625	      0.00000000	      0.00000000	     97.86056877	    -22.57786448	     -0.55509163	     67.87098691	      0.00000000	     -9.84197384	      1.18457219	      1.73267040	      0.00000000	      0.00000000
      5.30500000	     11.60510025	    -38.00363029	      4.92833835	     -0.05814509	      0.66397917	     -1.18363242	     95.21990078	    -44.31404443	     -4.69947901	     73.96495259	      0.00000000	      8.63719050	      1.29093195	      9.04874850	      0.00000000	      0.00000000	     97.72840966	    -23.15777056	     -0.94584143	     67.80141267	      0.00000000	     -9.70646591	      1.18335789	      1.68567947	      0.00000000	      0.00000000
      5.31000000	     12.31085252	    -37.77822986	      4.89547821	     -0.05741908	      0.66435531	     -1.18407422	     94.38450760	    -45.21159027	     -5.70145595	     73.89722213	      0.00000000	      9.16911470	      1.28974983	      9.14323582	      0.00000000	      0.00000000	     97.65670993	    -22.44164643	     -0.52173880	     67.76200707	      0.00000000	     -9.84202096	      1.18267013	      1.74387637	      0.00000000	      0.00000000
      5.31500000	     11.59403065	    -37.91575787	      4.83139831	     -0.05746516	      0.66453073	     -1.18352774	     94.87106662	    -44.33345228	     -4.96458697	     73.88521267	      0.00000000	      8.65239028	      1.28954023	      9.03595780	      0.00000000	      0.00000000	     97.57269396	    -23.19084344	     -0.90705601	     67.72203997	      0.00000000	     -9.70816095	      1.18197257	      1.65189641	      0.00000000	      0.00000000
